{"title":"True Romance (1993) Unrated. Directors cut-BRRip-720p-Xvid-ToPKa","uid":5665564,"size":3089594987,"categoryP":"video","categoryS":"hd___movies","magnet":"?xt=urn:btih:23441be2b11bb7a685b74b2b1fc864a7bd68c7c4&amp;dn=True+Romance+%281993%29+Unrated.+Directors+cut-BRRip-720p-Xvid-ToPKa&amp;tr=udp%3A%2F%2Ftracker.openbittorrent.com%3A80&amp;tr=udp%3A%2F%2Fopen.demonii.com%3A1337&amp;tr=udp%3A%2F%2Ftracker.coppersurfer.tk%3A6969&amp;tr=udp%3A%2F%2Fexodus.desync.com%3A6969","seeders":1,"leechers":0,"uploader":"zingooo","files":-1,"time":1278127173,"description":"True Romance (1993) Unrated. Directors cut-BRRip-720p-Xvid-ToPKaT\n\n\nClarence and Alabama are newlyweds who acquire an unexpected wedding present. Unknown to the blissfully happy couple, ruthless gangsters are on their tail, determined to reclaim their lost property\n\n\nChristian Slater ... Clarence Worley\nPatricia Arquette ... Alabama Whitman\nDennis Hopper ... Clifford Worley\nVal Kilmer ... Mentor\nGary Oldman ... Drexl Spivey\nBrad Pitt ... Floyd - Dick's Roommate\nChristopher Walken ... Vincenzo Coccotti\nBronson Pinchot ... Elliot Blitzer\nSamuel L. Jackson ... Big Don\nMichael Rapaport ... Dick Ritchie\nSaul Rubinek ... Lee Donowitz\nConchata Ferrell ... Mary Louise Ravencroft\nJames Gandolfini ... Virgil\nAnna Levine ... Lucy (as Anna Thomson)\nFrank Adonis ... Frankie\n\n\nDirector: Tony Scott\nWriter: Quentin Tarantino (written by)\nGenre: Action | Crime | Romance | Thriller\nMPAA: Rated R for strong violence and language, and for sexuality and drug use.\nRuntime: 2:01:01 (unrated director's cut)\nCountry: USA\nLanguage: English | Italian | Hardcoded English Subs For Key Non-English Parts\nColor: Color\nCompany: Morgan Creek Production \n\n                                  ................................................................\n\nSource==True.Romance.1993.720p.BluRay.x264-SiNNERS\n\nFormat                           : AVI\nFormat/Info                      : Audio Video Interleave\nFormat profile                   : OpenDML\nFile size                        : 2.88 GiB\nDuration                         : 2h 1mn\nOverall bit rate                 : 3 403 Kbps\nWriting application              : VirtualDubMod 1.5.10.2 (build 2542/release)\nWriting library                  : VirtualDubMod build 2542/release\n\nVideo\nID                               : 0\nFormat                           : MPEG-4 Visual\nFormat profile                   : Advanced Simple@L5\nFormat settings, BVOP            : Yes\nFormat settings, QPel            : Yes\nFormat settings, GMC             : No warppoints\nFormat settings, Matrix          : Custom\nCodec ID                         : XVID\nCodec ID/Hint                    : XviD\nDuration                         : 2h 1mn\nBit rate                         : 2 753 Kbps\nWidth                            : 1 280 pixels\nHeight                           : 528 pixels\nDisplay aspect ratio             : 2.40:1\nFrame rate                       : 23.976 fps\nResolution                       : 8 bits\nColorimetry                      : 4:2:0\nScan type                        : Progressive\nBits/(Pixel*Frame)               : 0.170\nStream size                      : 2.33 GiB (81%)\nWriting library                  : XviD 1.2.1 (UTC 2008-12-04)\n\nAudio\nID                               : 1\nFormat                           : AC-3\nFormat/Info                      : Audio Coding 3\nCodec ID                         : 2000\nDuration                         : 2h 1mn\nBit rate mode                    : Constant\nBit rate                         : 640 Kbps\nChannel(s)                       : 6 channels\nChannel positions                : Front: L C R, Surround: L R, LFE\nSampling rate                    : 48.0 KHz\nStream size                      : 554 MiB (19%)\nAlignment                        : Split accross interleaves\nInterleave, duration             : 42 ms (1.00 video frame)\nInterleave, preload duration     : 500 ms\n","torrent":{"xt":"urn:btih:23441be2b11bb7a685b74b2b1fc864a7bd68c7c4","amp;dn":"True+Romance+%281993%29+Unrated.+Directors+cut-BRRip-720p-Xvid-ToPKa","amp;tr":["udp%3A%2F%2Ftracker.openbittorrent.com%3A80","udp%3A%2F%2Fopen.demonii.com%3A1337","udp%3A%2F%2Ftracker.coppersurfer.tk%3A6969","udp%3A%2F%2Fexodus.desync.com%3A6969"],"infoHash":"23441be2b11bb7a685b74b2b1fc864a7bd68c7c4","infoHashBuffer":{"type":"Buffer","data":[35,68,27,226,177,27,183,166,133,183,75,43,31,200,100,167,189,104,199,196]},"announce":[],"urlList":[]}}